<svg width="24" height="24" viewBox="0 0 20 24" fill="none" xmlns="http://www.w3.org/2000/svg">
<path d="M12.9167 14H12.2583L12.025 13.73C12.8417 12.59 13.3333 11.11 13.3333 9.5C13.3333 5.91 10.9083 3 7.91667 3C4.925 3 2.5 5.91 2.5 9.5C2.5 13.09 4.925 16 7.91667 16C9.25833 16 10.4917 15.41 11.4417 14.43L11.6667 14.71V15.5L15.8333 20.49L17.075 19L12.9167 14V14ZM7.91667 14C5.84167 14 4.16667 11.99 4.16667 9.5C4.16667 7.01 5.84167 5 7.91667 5C9.99167 5 11.6667 7.01 11.6667 9.5C11.6667 11.99 9.99167 14 7.91667 14Z" fill="#ADADAD"/>
</svg>
